<?xml version="1.0" encoding="UTF-8" standalone="no"?>
<!-- Created with Inkscape (http://www.inkscape.org/) -->

<svg
   xmlns:dc="http://purl.org/dc/elements/1.1/"
   xmlns:cc="http://creativecommons.org/ns#"
   xmlns:rdf="http://www.w3.org/1999/02/22-rdf-syntax-ns#"
   xmlns:svg="http://www.w3.org/2000/svg"
   xmlns="http://www.w3.org/2000/svg"
   xmlns:sodipodi="http://sodipodi.sourceforge.net/DTD/sodipodi-0.dtd"
   xmlns:inkscape="http://www.inkscape.org/namespaces/inkscape"
   width="210mm"
   height="297mm"
   viewBox="0 0 744.09448819 1052.3622047"
   id="svg2"
   version="1.1"
   inkscape:version="0.91 r13725"
   sodipodi:docname="drawing.svg">
  <defs
     id="defs4" />
  <sodipodi:namedview
     id="base"
     pagecolor="#ffffff"
     bordercolor="#666666"
     borderopacity="1.0"
     inkscape:pageopacity="0.0"
     inkscape:pageshadow="2"
     inkscape:zoom="0.35"
     inkscape:cx="-278.67449"
     inkscape:cy="1180.2431"
     inkscape:document-units="px"
     inkscape:current-layer="layer1"
     showgrid="false"
     inkscape:window-width="1366"
     inkscape:window-height="706"
     inkscape:window-x="-8"
     inkscape:window-y="-8"
     inkscape:window-maximized="1" />
  <metadata
     id="metadata7">
    <rdf:RDF>
      <cc:Work
         rdf:about="">
        <dc:format>image/svg+xml</dc:format>
        <dc:type
           rdf:resource="http://purl.org/dc/dcmitype/StillImage" />
        <dc:title></dc:title>
      </cc:Work>
    </rdf:RDF>
  </metadata>
  <g
     inkscape:label="Layer 1"
     inkscape:groupmode="layer"
     id="layer1">
    <path
       style="fill:#000000;fill-opacity:1;stroke:#000000;stroke-width:5;stroke-miterlimit:4;stroke-dasharray:none;stroke-dashoffset:0;stroke-opacity:1"
       id="path4144"
       sodipodi:type="arc"
       sodipodi:cx="-744.28571"
       sodipodi:cy="-264.06631"
       sodipodi:rx="121.42857"
       sodipodi:ry="121.42857"
       sodipodi:start="0"
       sodipodi:end="6.2660113"
       d="m -622.85713,-264.06631 a 121.42857,121.42857 0 0 1 -120.90722,121.42745 121.42857,121.42857 0 0 1 -121.94545,-120.38476 121.42857,121.42857 0 0 1 119.86008,-122.4612 121.42857,121.42857 0 0 1 122.97468,119.33319 l -121.41067,2.08532 z"
       inkscape:export-xdpi="90"
       inkscape:export-ydpi="90" />
    <path
       style="fill:#000000;fill-opacity:1;stroke:#000000;stroke-width:5;stroke-miterlimit:4;stroke-dasharray:none;stroke-dashoffset:0;stroke-opacity:1"
       id="path4144-4"
       sodipodi:type="arc"
       sodipodi:cx="-470.94879"
       sodipodi:cy="-131.94376"
       sodipodi:rx="121.42857"
       sodipodi:ry="121.42857"
       sodipodi:start="0"
       sodipodi:end="5.5942944"
       d="m -349.52022,-131.94376 a 121.42857,121.42857 0 0 1 -100.61904,119.632198 121.42857,121.42857 0 0 1 -135.10574,-78.62883 121.42857,121.42857 0 0 1 54.3122,-146.581848 121.42857,121.42857 0 0 1 153.72098,28.3886 l -93.73697,77.18988 z"
       transform="matrix(0.95630476,0.2923717,-0.2923717,0.95630476,0,0)"
       inkscape:export-xdpi="90"
       inkscape:export-ydpi="90" />
    <path
       style="fill:#000000;fill-opacity:1;stroke:#000000;stroke-width:5;stroke-miterlimit:4;stroke-dasharray:none;stroke-dashoffset:0;stroke-opacity:1"
       id="path4144-7"
       sodipodi:type="arc"
       sodipodi:cx="-206.58609"
       sodipodi:cy="-180.91916"
       sodipodi:rx="121.42857"
       sodipodi:ry="121.42857"
       sodipodi:start="0"
       sodipodi:end="5.0726062"
       d="m -85.157516,-180.91916 a 121.42857,121.42857 0 0 1 -85.237294,115.909836 121.42857,121.42857 0 0 1 -136.04653,-46.816946 121.42857,121.42857 0 0 1 4.14109,-143.81703 121.42857,121.42857 0 0 1 138.515,-38.91118 l -42.80084,113.63532 z"
       transform="matrix(0.8480481,0.52991926,-0.52991926,0.8480481,0,0)"
       inkscape:export-xdpi="90"
       inkscape:export-ydpi="90" />
    <path
       style="fill:#000000;fill-opacity:1;stroke:#000000;stroke-width:5;stroke-miterlimit:4;stroke-dasharray:none;stroke-dashoffset:0;stroke-opacity:1"
       id="path4144-6"
       sodipodi:type="arc"
       sodipodi:cx="167.8596"
       sodipodi:cy="-624.07336"
       sodipodi:rx="121.42857"
       sodipodi:ry="121.42857"
       sodipodi:start="0"
       sodipodi:end="4.3193465"
       d="M 289.28818,-624.07336 A 121.42857,121.42857 0 0 1 183.72299,-503.68544 121.42857,121.42857 0 0 1 50.575807,-592.61849 121.42857,121.42857 0 0 1 121.35238,-736.24277 l 46.50722,112.16941 z"
       transform="matrix(0.62932039,0.77714596,-0.77714596,0.62932039,0,0)"
       inkscape:export-xdpi="90"
       inkscape:export-ydpi="90" />
    <path
       style="fill:#000000;fill-opacity:1;stroke:#000000;stroke-width:5;stroke-miterlimit:4;stroke-dasharray:none;stroke-dashoffset:0;stroke-opacity:1"
       id="path4144-44"
       sodipodi:type="arc"
       sodipodi:cx="50.540245"
       sodipodi:cy="-361.30127"
       sodipodi:rx="121.42857"
       sodipodi:ry="121.42857"
       sodipodi:start="0"
       sodipodi:end="4.8606173"
       d="M 171.96882,-361.30127 A 121.42857,121.42857 0 0 1 92.820735,-247.47131 121.42857,121.42857 0 0 1 -41.444849,-282.03185 121.42857,121.42857 0 0 1 -55.797242,-419.92923 121.42857,121.42857 0 0 1 68.473559,-481.39829 L 50.540245,-361.30127 Z"
       transform="matrix(0.80901699,0.58778525,-0.58778525,0.80901699,0,0)"
       inkscape:export-xdpi="90"
       inkscape:export-ydpi="90" />
    <rect
       style="fill:#000000;fill-opacity:1;stroke:#000000;stroke-width:5;stroke-miterlimit:4;stroke-dasharray:none;stroke-dashoffset:0;stroke-opacity:1"
       id="rect4179"
       width="228.57143"
       height="228.57143"
       x="-894.28571"
       y="106.64792"
       inkscape:export-xdpi="90"
       inkscape:export-ydpi="90" />
    <path
       style="fill:#000000;fill-opacity:0.6903553;stroke:#000000;stroke-width:1.42686975;stroke-miterlimit:4;stroke-dasharray:none;stroke-dashoffset:0;stroke-opacity:0.33502537"
       id="path4144-1"
       sodipodi:type="arc"
       sodipodi:cx="-480.00351"
       sodipodi:cy="32.370995"
       sodipodi:rx="34.652554"
       sodipodi:ry="34.652554"
       sodipodi:start="0"
       sodipodi:end="6.2660113"
       d="m -445.35096,32.370995 a 34.652554,34.652554 0 0 1 -34.50377,34.652234 34.652554,34.652554 0 0 1 -34.80006,-34.354676 34.652554,34.652554 0 0 1 34.20495,-34.9472375 34.652554,34.652554 0 0 1 35.09377,34.0545855 l -34.64744,0.595094 z"
       inkscape:export-xdpi="89.059769"
       inkscape:export-ydpi="89.059769" />
  </g>
</svg>
